<svg width="32" height="32" viewBox="0 0 32 32" fill="none" xmlns="http://www.w3.org/2000/svg">
<path d="M31.328 8.271C31.1422 7.60673 30.788 7.0017 30.2997 6.51449C29.8115 6.02728 29.2057 5.67439 28.541 5.49C26.046 4.823 16.016 4.823 16.016 4.823C16.016 4.823 6.00499 4.807 3.48399 5.49C2.82039 5.6752 2.21579 6.02846 1.72862 6.51562C1.24145 7.00279 0.888194 7.6074 0.702994 8.271C0.229194 10.8252 -0.0041601 13.4182 0.00599385 16.016C0.00137076 18.6013 0.234688 21.1815 0.702994 23.724C0.888793 24.388 1.24215 24.993 1.72915 25.4811C2.21615 25.9691 2.82044 26.3238 3.48399 26.511C5.97899 27.178 16.016 27.178 16.016 27.178C16.016 27.178 26.021 27.178 28.541 26.511C29.2056 26.3246 29.8111 25.9703 30.2992 25.4822C30.7873 24.9941 31.1416 24.3886 31.328 23.724C31.787 21.183 32.011 18.599 31.995 16.016C32.011 13.416 31.792 10.828 31.328 8.271ZM12.812 20.803V11.208L21.161 16.016L12.812 20.803Z" fill="black"/>
</svg>
